<?xml version="1.0" encoding="UTF-8" standalone="no"?>
<svg
   xmlns:osb="http://www.openswatchbook.org/uri/2009/osb"
   xmlns:dc="http://purl.org/dc/elements/1.1/"
   xmlns:cc="http://creativecommons.org/ns#"
   xmlns:rdf="http://www.w3.org/1999/02/22-rdf-syntax-ns#"
   xmlns:svg="http://www.w3.org/2000/svg"
   xmlns="http://www.w3.org/2000/svg"
   enable-background="new"
   width="16"
   version="1.1"
   id="svg7384"
   height="16">
  <metadata
     id="metadata90">
    <rdf:RDF>
      <cc:Work
         rdf:about="">
        <dc:format>image/svg+xml</dc:format>
        <dc:type
           rdf:resource="http://purl.org/dc/dcmitype/StillImage" />
        <dc:title>Gnome Symbolic Icon Theme</dc:title>
      </cc:Work>
    </rdf:RDF>
  </metadata>
  <title
     id="title9167">Gnome Symbolic Icon Theme</title>
  <defs
     id="defs7386">
    <linearGradient
       osb:paint="solid"
       id="linearGradient7212">
      <stop
         style="stop-color:#000000;stop-opacity:1;"
         offset="0"
         id="stop7214" />
    </linearGradient>
  </defs>
  <g
     style="display:inline"
     id="layer1">
    <path
       style="fill:#bebebe;fill-opacity:1"
       d="m 7.9374825,0.88654809 c -3.9629386,0 -7.17563246,3.21246051 -7.17563246,7.17539881 0,3.9629381 3.21269386,7.1756031 7.17563246,7.1756031 3.9630545,0 7.1757195,-3.212665 7.1757195,-7.1756031 0,-3.9629383 -3.212694,-7.17539881 -7.1757195,-7.17539881 z M 10.848579,11.447989 c -0.116003,0 -0.195301,-0.04024 -0.303724,-0.1063 -1.0400627,-0.629134 -2.3366795,-0.959768 -3.7129152,-0.959768 -0.767795,0 -1.5405469,0.09836 -2.2633286,0.24877 -0.1174898,0.02554 -0.2653869,0.07102 -0.3536939,0.07102 -0.2725012,0 -0.4542166,-0.216643 -0.4542166,-0.450952 0,-0.3016845 0.1739311,-0.451593 0.3903402,-0.4929909 0.8862766,-0.2019493 1.7689375,-0.317282 2.6857387,-0.317282 1.5701371,0 2.9695795,0.360254 4.1738074,1.0819279 0.179209,0.104692 0.28425,0.211453 0.28425,0.476928 3e-5,0.258682 -0.210257,0.448648 -0.446258,0.448648 z m 0.781906,-1.8992264 c -0.15571,0 -0.253754,-0.062858 -0.359466,-0.1243699 C 10.103757,8.7316981 8.4859821,8.2714755 6.7144207,8.2714755 c -0.9086663,0 -1.6928462,0.1271107 -2.3420145,0.3001103 -0.1398801,0.038431 -0.2183625,0.079819 -0.3491756,0.079819 -0.3085934,0 -0.5605112,-0.2514806 -0.5605112,-0.5625531 0,-0.3050943 0.1478971,-0.515177 0.4463161,-0.5993145 C 4.7157214,7.2680264 5.5393463,7.097156 6.7382684,7.097156 c 1.8782938,0 3.6952766,0.467802 5.1237566,1.3226502 0.239499,0.1374895 0.327688,0.3116266 0.327688,0.5671591 6e-5,0.3107791 -0.247368,0.5617936 -0.559228,0.5617936 z m 0.890241,-2.2087804 c -0.14609,0 -0.232821,-0.035508 -0.369757,-0.1104907 -1.298775,-0.778729 -3.3143244,-1.2076391 -5.263637,-1.2076391 -0.973009,0 -1.9612946,0.098952 -2.8665499,0.344539 -0.1042543,0.026235 -0.2359714,0.078481 -0.3679507,0.078481 -0.382761,0 -0.6763984,-0.3027913 -0.6763984,-0.6855519 0,-0.3900195 0.2416562,-0.6089068 0.5023787,-0.6859311 1.0228622,-0.3013346 2.1645847,-0.441768 3.4058382,-0.441768 2.107035,0 4.3238631,0.4334011 5.9432121,1.3844865 0.218217,0.1236115 0.369758,0.3100501 0.369758,0.6516464 -2.9e-5,0.3911275 -0.314482,0.6722292 -0.676894,0.6722292 z"
       id="path4264" />
  </g>
</svg>
